<?xml version="1.0" encoding="utf-8"?>
<!-- Generator: Adobe Illustrator 24.1.2, SVG Export Plug-In . SVG Version: 6.00 Build 0)  -->
<svg version="1.1" id="Laag_1" xmlns="http://www.w3.org/2000/svg" xmlns:xlink="http://www.w3.org/1999/xlink" x="0px" y="0px"
	 viewBox="0 0 331.7 189.9" style="enable-background:new 0 0 331.7 189.9;" xml:space="preserve">
<style type="text/css">
	.st0{fill:#84BF63;}
	.st1{fill:#FFFFFF;}
</style>
<g id="Laag_2_1_">
	<rect class="st0" width="331.7" height="189.9">
		<animate attributeName="fill" values="#84BF63;#65B8DC;#4575B5;#D5425E;#DA6543;#E2C163;#84BF63" dur="7s" repeatCount="indefinite" />
	</rect>
</g>
<g id="Layer_1">
	<g>
		<path class="st1" d="M157.5,116c0.2,0.5,0.4,1.2,0.7,1.9s0.7,1.7,1.2,2.9h1.7c0.1-0.2,0.2-0.5,0.3-0.9c0.1-0.4,0.3-0.8,0.4-1.3
			s0.3-0.9,0.4-1.4c0.1-0.5,0.3-0.9,0.4-1.4c0.1,0.4,0.3,0.9,0.4,1.4c0.1,0.5,0.3,1,0.5,1.4s0.3,0.9,0.4,1.3
			c0.1,0.4,0.2,0.7,0.3,0.9h1.7c0.2-0.6,0.5-1.2,0.8-1.9c0.3-0.7,0.5-1.4,0.8-2c0.2-0.7,0.5-1.3,0.7-1.8s0.3-1,0.4-1.3
			c0,0-0.1-0.1-0.3-0.2c-0.2-0.1-0.4-0.1-0.6-0.1c-0.3,0-0.5,0.1-0.6,0.2s-0.3,0.4-0.3,0.7c-0.2,0.8-0.5,1.6-0.7,2.4
			s-0.5,1.5-0.8,2.2c-0.1-0.3-0.3-0.7-0.4-1.1s-0.3-0.9-0.4-1.3c-0.1-0.5-0.3-0.9-0.4-1.4c-0.1-0.5-0.3-0.9-0.4-1.4
			c0,0-0.1-0.1-0.3-0.1c-0.2-0.1-0.3-0.1-0.5-0.1c-0.3,0-0.5,0.1-0.7,0.2s-0.3,0.3-0.3,0.6c-0.1,0.4-0.2,0.8-0.4,1.2
			c-0.1,0.4-0.3,0.8-0.4,1.3c-0.1,0.4-0.3,0.8-0.4,1.2c-0.1,0.4-0.2,0.7-0.3,1c-0.1-0.3-0.3-0.7-0.4-1.2s-0.3-0.9-0.5-1.4
			c-0.2-0.5-0.3-1-0.4-1.4c-0.1-0.5-0.3-0.9-0.4-1.4c0,0-0.1-0.1-0.2-0.1c-0.1,0-0.3-0.1-0.5-0.1c-0.3,0-0.5,0.1-0.6,0.2
			c-0.1,0.2-0.2,0.3-0.2,0.5c0,0.1,0,0.3,0.1,0.6C157.2,115.1,157.3,115.5,157.5,116"/>
		<path class="st1" d="M174.6,117.5v2.1c-0.1,0-0.3,0.1-0.5,0.1c-0.3,0-0.6,0.1-1.1,0.1c-0.4,0-0.7,0-1-0.1s-0.5-0.1-0.6-0.2
			c-0.2-0.1-0.3-0.2-0.3-0.4c-0.1-0.2-0.1-0.3-0.1-0.5c0-0.4,0.1-0.7,0.4-0.9c0.3-0.2,0.8-0.3,1.4-0.3c0.5,0,0.9,0,1.2,0.1
			C174.3,117.5,174.5,117.5,174.6,117.5 M172.8,116.2c-0.6,0-1.2,0.1-1.6,0.2s-0.8,0.3-1.1,0.5c-0.3,0.2-0.5,0.5-0.6,0.8
			c-0.1,0.3-0.2,0.7-0.2,1.1c0,0.3,0.1,0.6,0.1,0.9c0.1,0.3,0.3,0.5,0.6,0.8c0.3,0.2,0.7,0.4,1.1,0.5s1.1,0.2,1.9,0.2
			c0.4,0,0.8,0,1.1,0s0.7,0,0.9-0.1c0.3,0,0.5-0.1,0.7-0.1s0.4-0.1,0.5-0.1v-4.4c0-0.6-0.1-1.1-0.3-1.4c-0.2-0.4-0.5-0.7-0.8-1
			s-0.8-0.4-1.2-0.5s-1-0.2-1.6-0.2c-0.5,0-0.9,0-1.2,0.1c-0.3,0.1-0.6,0.1-0.8,0.2s-0.3,0.2-0.4,0.3c-0.1,0.1-0.1,0.3-0.1,0.4
			c0,0.2,0.1,0.4,0.1,0.5s0.2,0.2,0.2,0.3c0.1-0.1,0.3-0.2,0.7-0.3c0.3-0.1,0.8-0.2,1.3-0.2c0.3,0,0.6,0,0.9,0.1
			c0.3,0.1,0.5,0.1,0.7,0.3c0.2,0.1,0.4,0.3,0.5,0.5c0.1,0.2,0.2,0.5,0.2,0.8c-0.2,0-0.4,0-0.8-0.1
			C173.5,116.2,173.2,116.2,172.8,116.2"/>
		<path class="st1" d="M183,119.7c-0.1,0-0.3,0.1-0.5,0.1c-0.3,0-0.6,0.1-1.1,0.1c-0.4,0-0.7,0-1-0.1s-0.5-0.1-0.6-0.2
			c-0.2-0.1-0.3-0.2-0.3-0.4c-0.1-0.2-0.1-0.3-0.1-0.5c0-0.4,0.1-0.7,0.4-0.9c0.3-0.2,0.8-0.3,1.4-0.3c0.5,0,0.9,0,1.2,0.1
			s0.4,0.1,0.6,0.1L183,119.7L183,119.7L183,119.7z M183.5,114c-0.3-0.2-0.8-0.4-1.2-0.5s-1-0.2-1.6-0.2c-0.5,0-0.9,0-1.2,0.1
			c-0.3,0.1-0.6,0.1-0.8,0.2s-0.3,0.2-0.4,0.3s-0.1,0.3-0.1,0.4c0,0.2,0.1,0.4,0.1,0.5c0.1,0.1,0.2,0.2,0.2,0.3
			c0.1-0.1,0.3-0.2,0.7-0.3c0.3-0.1,0.8-0.2,1.3-0.2c0.3,0,0.6,0,0.9,0.1c0.3,0.1,0.5,0.1,0.7,0.3c0.2,0.1,0.4,0.3,0.5,0.5
			c0.1,0.2,0.2,0.5,0.2,0.8c-0.2,0-0.4,0-0.8-0.1s-0.7,0-1.1,0c-0.6,0-1.2,0.1-1.6,0.2s-0.8,0.3-1.1,0.5c-0.3,0.2-0.5,0.5-0.6,0.8
			c-0.1,0.3-0.2,0.7-0.2,1.1c0,0.3,0.1,0.6,0.1,0.9c0.1,0.3,0.3,0.5,0.6,0.8c0.3,0.2,0.7,0.4,1.1,0.5s1.1,0.2,1.9,0.2
			c0.4,0,0.8,0,1.1,0s0.7,0,0.9-0.1c0.3,0,0.5-0.1,0.7-0.1s0.4-0.1,0.5-0.1v-4.4c0-0.6-0.1-1.1-0.3-1.4
			C184.1,114.5,183.9,114.2,183.5,114"/>
		<path class="st1" d="M190.9,113.5c-0.4-0.2-0.9-0.3-1.5-0.3c-1,0-1.7,0.3-2.3,0.7c-0.6,0.5-0.8,1.2-0.8,2.1v4.7h1.7v-4.3
			c0-1.2,0.6-1.8,1.7-1.8c0.3,0,0.6,0,0.8,0.1s0.4,0.1,0.6,0.2c0.1,0,0.1-0.1,0.2-0.3c0.1-0.2,0.1-0.3,0.1-0.5
			C191.5,113.9,191.3,113.7,190.9,113.5"/>
		<path class="st1" d="M197.1,113.5c-0.3,0-0.5,0.1-0.7,0.2s-0.2,0.3-0.2,0.6v7c0,0.3,0,0.5-0.1,0.7s-0.2,0.3-0.3,0.4
			c-0.1,0.1-0.3,0.2-0.4,0.2c-0.2,0-0.3,0.1-0.5,0.1c-0.2,0-0.4,0-0.6-0.1c-0.2,0-0.3-0.1-0.5-0.2l-0.4,1.2c0.1,0,0.1,0.1,0.3,0.1
			c0.1,0,0.3,0.1,0.4,0.1c0.2,0,0.3,0.1,0.5,0.1s0.4,0,0.6,0c0.4,0,0.7,0,1-0.1s0.6-0.2,0.9-0.4s0.5-0.5,0.6-0.9s0.2-0.8,0.2-1.4
			v-7.4c-0.1,0-0.1-0.1-0.3-0.1C197.4,113.5,197.2,113.5,197.1,113.5"/>
		<path class="st1" d="M197,110.2c-0.3,0-0.5,0.1-0.7,0.3c-0.2,0.2-0.3,0.4-0.3,0.7c0,0.3,0.1,0.5,0.3,0.7c0.2,0.2,0.4,0.3,0.7,0.3
			c0.3,0,0.5-0.1,0.7-0.3c0.2-0.2,0.3-0.4,0.3-0.7c0-0.3-0.1-0.5-0.3-0.7C197.5,110.3,197.3,110.2,197,110.2"/>
		<path class="st1" d="M204.7,116.1c-0.1,0.1-0.2,0.3-0.4,0.4s-0.4,0.2-0.8,0.3c-0.3,0.1-0.8,0.1-1.3,0.1h-0.6c-0.2,0-0.4,0-0.6,0
			c0-0.3,0.1-0.6,0.2-0.8c0.1-0.3,0.3-0.5,0.4-0.7c0.2-0.2,0.4-0.4,0.7-0.5s0.6-0.2,0.9-0.2c0.4,0,0.8,0.1,1.1,0.3s0.4,0.5,0.4,0.8
			C204.8,115.8,204.8,116,204.7,116.1 M205.6,114c-0.3-0.2-0.6-0.4-1-0.5s-0.8-0.2-1.4-0.2c-0.6,0-1.1,0.1-1.6,0.3s-0.9,0.5-1.3,0.8
			s-0.6,0.8-0.8,1.2c-0.2,0.5-0.3,1-0.3,1.6c0,0.6,0.1,1.2,0.3,1.6c0.2,0.5,0.5,0.9,0.8,1.2c0.4,0.3,0.8,0.6,1.2,0.7s1,0.3,1.5,0.3
			c0.4,0,0.8,0,1.1-0.1s0.6-0.1,0.9-0.2c0.3-0.1,0.5-0.2,0.6-0.3c0.2-0.1,0.3-0.2,0.4-0.2l-0.6-1.2c-0.1,0-0.1,0.1-0.3,0.1
			c-0.1,0.1-0.3,0.1-0.4,0.2s-0.4,0.1-0.6,0.2c-0.2,0-0.4,0.1-0.7,0.1c-0.8,0-1.3-0.2-1.7-0.5s-0.6-0.7-0.7-1.2c0.2,0,0.4,0,0.6,0
			c0.2,0,0.4,0,0.6,0c0.8,0,1.5-0.1,2.1-0.2s1-0.3,1.3-0.5c0.3-0.2,0.6-0.4,0.7-0.7c0.1-0.3,0.2-0.6,0.2-0.9c0-0.3-0.1-0.6-0.2-0.9
			C206.1,114.5,205.9,114.2,205.6,114"/>
		<path class="st1" d="M215.2,119.4c-0.2,0.1-0.5,0.1-0.8,0.1c-0.2,0-0.3,0-0.5-0.1c-0.2,0-0.3-0.1-0.4-0.2s-0.2-0.2-0.3-0.4
			c-0.1-0.2-0.1-0.4-0.1-0.6V115h2.8c0-0.1,0.1-0.2,0.1-0.3c0.1-0.1,0.1-0.3,0.1-0.5c0-0.3-0.1-0.4-0.2-0.6
			c-0.1-0.1-0.4-0.2-0.7-0.2h-2.1v-1.9c-0.1,0-0.1-0.1-0.3-0.1c-0.1,0-0.3-0.1-0.5-0.1c-0.3,0-0.5,0.1-0.6,0.2
			c-0.2,0.1-0.2,0.3-0.2,0.6v6.4c0,0.7,0.2,1.3,0.7,1.8s1.1,0.7,1.9,0.7c0.3,0,0.6,0,0.8-0.1s0.5-0.1,0.7-0.2
			c0.2-0.1,0.4-0.2,0.5-0.3s0.3-0.2,0.3-0.2l-0.7-1.1C215.6,119.2,215.4,119.3,215.2,119.4"/>
		<path class="st1" d="M223.5,114c-0.3-0.3-0.6-0.4-1-0.6c-0.4-0.1-0.8-0.2-1.2-0.2c-0.6,0-1.1,0.1-1.5,0.3s-0.7,0.4-0.9,0.7v-4
			c-0.1,0-0.1-0.1-0.3-0.1c-0.1,0-0.3-0.1-0.5-0.1c-0.3,0-0.5,0.1-0.7,0.2c-0.2,0.1-0.2,0.3-0.2,0.6v10h1.7v-3.9
			c0-0.6,0.2-1.1,0.5-1.5s0.8-0.6,1.5-0.6c0.6,0,1.1,0.2,1.4,0.5c0.3,0.3,0.4,0.8,0.4,1.5v4.1h1.7v-4.6c0-0.5-0.1-0.9-0.2-1.3
			C224,114.6,223.8,114.2,223.5,114"/>
		<path class="st1" d="M232.4,113.5c-0.3,0-0.5,0.1-0.6,0.2c-0.2,0.1-0.2,0.3-0.2,0.6v3.2c0,0.7-0.2,1.2-0.5,1.5s-0.8,0.5-1.4,0.5
			c-0.6,0-1.1-0.2-1.4-0.5c-0.3-0.3-0.5-0.8-0.5-1.5v-3.8c-0.1,0-0.1-0.1-0.3-0.1c-0.1,0-0.3-0.1-0.5-0.1c-0.3,0-0.5,0.1-0.7,0.2
			s-0.2,0.3-0.2,0.6v3.6c0,0.5,0.1,0.9,0.3,1.3c0.2,0.4,0.4,0.7,0.7,1s0.7,0.5,1.1,0.6s0.9,0.2,1.4,0.2s1-0.1,1.4-0.2
			s0.8-0.3,1.1-0.6c0.3-0.3,0.6-0.6,0.7-1c0.2-0.4,0.3-0.8,0.3-1.3v-4.2c-0.1,0-0.1-0.1-0.3-0.1
			C232.8,113.5,232.6,113.5,232.4,113.5"/>
		<path class="st1" d="M235.9,113.5c-0.3,0-0.5,0.1-0.7,0.2s-0.2,0.3-0.2,0.6v6.6h1.7v-7.2c-0.1,0-0.1-0.1-0.3-0.1
			C236.3,113.5,236.1,113.5,235.9,113.5"/>
		<path class="st1" d="M235.9,110.2c-0.3,0-0.5,0.1-0.7,0.3c-0.2,0.2-0.3,0.4-0.3,0.7c0,0.3,0.1,0.5,0.3,0.7
			c0.2,0.2,0.4,0.3,0.7,0.3c0.3,0,0.5-0.1,0.7-0.3c0.2-0.2,0.3-0.4,0.3-0.7c0-0.3-0.1-0.5-0.3-0.7
			C236.4,110.3,236.1,110.2,235.9,110.2"/>
		<path class="st1" d="M244.5,117.1c-0.4-0.3-1.1-0.6-1.9-0.7l-1.5-0.2c-0.4-0.1-0.7-0.1-0.9-0.3c-0.2-0.1-0.3-0.3-0.3-0.6
			c0-0.6,0.6-0.9,1.7-0.9c0.4,0,0.8,0,1.1,0.1c0.3,0.1,0.6,0.1,0.8,0.2c0.2,0.1,0.4,0.2,0.5,0.3s0.2,0.1,0.3,0.2c0,0,0.1,0,0.1-0.1
			s0.1-0.1,0.2-0.2c0.1-0.1,0.1-0.2,0.1-0.2c0-0.1,0.1-0.2,0.1-0.3c0-0.4-0.3-0.7-0.8-0.9c-0.6-0.2-1.4-0.3-2.4-0.3
			c-0.6,0-1.1,0.1-1.5,0.2c-0.4,0.1-0.8,0.3-1,0.5c-0.3,0.2-0.5,0.5-0.6,0.7s-0.2,0.6-0.2,0.9c0,0.4,0.1,0.7,0.2,0.9
			c0.1,0.3,0.3,0.5,0.6,0.7c0.2,0.2,0.5,0.3,0.8,0.4c0.3,0.1,0.7,0.2,1.1,0.2l1.1,0.1c0.5,0.1,0.9,0.2,1.1,0.3s0.3,0.3,0.3,0.6
			c0,0.3-0.2,0.6-0.5,0.7c-0.3,0.1-0.7,0.2-1.2,0.2c-0.4,0-0.8,0-1.1-0.1s-0.6-0.1-0.9-0.2s-0.5-0.2-0.6-0.2
			c-0.2-0.1-0.3-0.1-0.4-0.2l-0.6,1.1c0.1,0.1,0.2,0.1,0.4,0.2c0.2,0.1,0.4,0.2,0.8,0.3c0.3,0.1,0.7,0.2,1.1,0.3
			c0.4,0.1,0.9,0.1,1.4,0.1c1.1,0,1.9-0.2,2.5-0.7s0.9-1,0.9-1.8C245.1,118,244.9,117.5,244.5,117.1"/>
		<path class="st1" d="M249.8,116.8c0.1-0.1,0.4-0.3,0.7-0.5s0.7-0.5,1.1-0.7c0.4-0.3,0.7-0.5,1.1-0.8c0.4-0.3,0.6-0.5,0.8-0.7
			c-0.1-0.1-0.2-0.2-0.4-0.4s-0.4-0.2-0.7-0.2c-0.3,0-0.5,0-0.7,0.1c-0.2,0.1-0.4,0.2-0.6,0.4c-0.3,0.2-0.6,0.4-0.9,0.6
			c-0.3,0.2-0.6,0.4-0.9,0.6s-0.5,0.4-0.8,0.6c-0.2,0.2-0.4,0.3-0.5,0.4v-6c-0.1,0-0.1-0.1-0.3-0.1c-0.1,0-0.3-0.1-0.5-0.1
			c-0.3,0-0.5,0.1-0.7,0.2c-0.2,0.1-0.2,0.3-0.2,0.6v10h1.7v-3.3c0.3,0.2,0.6,0.5,0.9,0.7c0.3,0.3,0.6,0.6,1,0.8
			c0.3,0.3,0.6,0.6,0.9,0.9c0.3,0.3,0.5,0.6,0.8,0.9h2.1c-0.5-0.7-1.1-1.3-1.7-2.1C251.4,118.1,250.6,117.4,249.8,116.8"/>
		<path class="st1" d="M260.3,118.1c-0.1,0.3-0.3,0.5-0.5,0.8c-0.2,0.2-0.4,0.4-0.7,0.5s-0.6,0.2-0.9,0.2c-0.3,0-0.6-0.1-0.9-0.2
			s-0.5-0.3-0.7-0.5c-0.2-0.2-0.4-0.5-0.5-0.8c-0.1-0.3-0.2-0.6-0.2-0.9c0-0.3,0.1-0.7,0.2-1c0.1-0.3,0.3-0.6,0.5-0.8
			c0.2-0.2,0.4-0.4,0.7-0.5c0.3-0.1,0.6-0.2,0.9-0.2c0.3,0,0.6,0.1,0.9,0.2s0.5,0.3,0.7,0.5c0.2,0.2,0.4,0.5,0.5,0.8
			c0.1,0.3,0.2,0.6,0.2,1S260.4,117.8,260.3,118.1 M261.1,114.4c-0.4-0.3-0.8-0.6-1.3-0.8c-0.5-0.2-1-0.3-1.6-0.3s-1.1,0.1-1.6,0.3
			c-0.5,0.2-0.9,0.5-1.3,0.8c-0.4,0.3-0.6,0.8-0.9,1.2s-0.3,1-0.3,1.5s0.1,1.1,0.3,1.5c0.2,0.5,0.5,0.9,0.9,1.2
			c0.4,0.3,0.8,0.6,1.3,0.8c0.5,0.2,1,0.3,1.6,0.3c0.6,0,1.1-0.1,1.6-0.3c0.5-0.2,0.9-0.5,1.3-0.8c0.4-0.3,0.6-0.8,0.9-1.2
			c0.2-0.5,0.3-1,0.3-1.5c0-0.6-0.1-1.1-0.3-1.5S261.4,114.7,261.1,114.4"/>
		<path class="st1" d="M274.6,114c-0.3-0.2-0.6-0.4-1-0.5c-0.4-0.1-0.8-0.2-1.3-0.2c-0.6,0-1.1,0.1-1.6,0.3c-0.5,0.2-0.8,0.6-1.1,1
			c-0.3-0.4-0.7-0.8-1.1-1c-0.5-0.2-1-0.3-1.6-0.3c-0.5,0-0.9,0.1-1.3,0.2c-0.4,0.1-0.7,0.3-1,0.5c-0.3,0.2-0.5,0.5-0.7,0.9
			c-0.2,0.3-0.3,0.8-0.3,1.2v4.7h1.7v-4.2c0-0.7,0.2-1.2,0.5-1.4c0.3-0.3,0.7-0.4,1.2-0.4c0.5,0,0.9,0.2,1.3,0.5s0.5,0.8,0.5,1.6v4
			h1.7v-4c0-0.7,0.2-1.2,0.5-1.6c0.3-0.3,0.8-0.5,1.3-0.5c0.5,0,0.9,0.1,1.2,0.4c0.3,0.3,0.5,0.8,0.5,1.4v4.2h1.7V116
			c0-0.5-0.1-0.9-0.3-1.2C275.1,114.5,274.9,114.2,274.6,114"/>
		<path class="st1" d="M281.1,119.4c-0.2,0.1-0.5,0.1-0.8,0.1c-0.2,0-0.3,0-0.5-0.1c-0.2,0-0.3-0.1-0.4-0.2s-0.2-0.2-0.3-0.4
			c-0.1-0.2-0.1-0.4-0.1-0.6V115h2.8c0-0.1,0.1-0.2,0.1-0.3c0.1-0.1,0.1-0.3,0.1-0.5c0-0.3-0.1-0.4-0.2-0.6
			c-0.1-0.1-0.4-0.2-0.7-0.2h-2.1v-1.9c-0.1,0-0.1-0.1-0.3-0.1c-0.1,0-0.3-0.1-0.5-0.1c-0.3,0-0.5,0.1-0.6,0.2
			c-0.2,0.1-0.2,0.3-0.2,0.6v6.4c0,0.7,0.2,1.3,0.7,1.8s1.1,0.7,1.9,0.7c0.3,0,0.6,0,0.8-0.1s0.5-0.1,0.7-0.2
			c0.2-0.1,0.4-0.2,0.5-0.3c0.1-0.1,0.3-0.2,0.3-0.2l-0.7-1.1C281.5,119.2,281.3,119.3,281.1,119.4"/>
		<path class="st1" d="M163.4,105.3V94.1c0-1.3,0.3-2.3,0.9-2.9c0.6-0.6,1.4-0.9,2.4-0.9c1,0,1.9,0.3,2.5,1c0.6,0.7,0.9,1.8,0.9,3.3
			v10.6h6.4V94.7c0-1.5,0.3-2.6,1-3.3s1.5-1,2.5-1c1,0,1.8,0.3,2.4,0.9c0.6,0.6,0.8,1.6,0.8,2.9v11.2h6.4v-13c0-1.3-0.2-2.4-0.7-3.4
			c-0.5-1-1.1-1.8-1.9-2.4c-0.8-0.7-1.8-1.2-2.9-1.5c-1.1-0.3-2.3-0.5-3.6-0.5c-1.6,0-3,0.3-4.2,0.8c-1.2,0.5-2.2,1.3-3,2.2
			c-0.8-1-1.8-1.7-3-2.2c-1.3-0.5-2.7-0.8-4.3-0.8c-1.2,0-2.3,0.1-3.3,0.4c-0.1,0-0.3-0.1-0.5-0.2c-0.6-0.2-1.2-0.3-1.9-0.3
			c-1,0-1.8,0.2-2.4,0.6c-0.6,0.4-0.9,1.2-0.9,2.2v5v13C157,105.3,163.4,105.3,163.4,105.3z"/>
		<path class="st1" d="M199.9,92.1c0.2-0.5,0.5-1,0.8-1.4s0.8-0.7,1.3-1s1.1-0.4,1.9-0.4c1,0,1.8,0.2,2.3,0.6
			c0.5,0.4,0.8,0.9,0.8,1.4c0,0.3-0.1,0.5-0.2,0.8c-0.1,0.3-0.4,0.5-0.9,0.7c-0.5,0.2-1.2,0.4-2.2,0.5c-1,0.1-2.4,0.2-4.1,0.2
			C199.7,93.1,199.8,92.6,199.9,92.1 M212.6,103.7l-2.2-4.5c-0.1,0.1-0.2,0.2-0.5,0.3c-0.3,0.1-0.7,0.3-1.1,0.4
			c-0.4,0.1-1,0.3-1.6,0.4c-0.6,0.1-1.3,0.2-1.9,0.2c-0.9,0-1.7-0.1-2.3-0.2c-0.6-0.2-1.2-0.4-1.6-0.6c-0.4-0.3-0.7-0.6-0.9-0.9
			c-0.2-0.3-0.4-0.6-0.4-0.9h1.4c2.4,0,4.3-0.2,5.8-0.4c1.5-0.3,2.7-0.7,3.6-1.3s1.5-1.2,1.9-2c0.3-0.8,0.5-1.7,0.5-2.7
			c0-0.9-0.2-1.8-0.6-2.6c-0.4-0.8-1-1.6-1.8-2.3c-0.8-0.7-1.7-1.2-2.9-1.6s-2.4-0.6-3.9-0.6c-1.5,0-3,0.3-4.3,0.8s-2.5,1.2-3.5,2.2
			c-1,0.9-1.8,2.1-2.3,3.4c-0.6,1.3-0.8,2.8-0.8,4.4c0,1.7,0.3,3.2,0.8,4.5c0.6,1.3,1.3,2.4,2.3,3.4c1,0.9,2.1,1.6,3.4,2.1
			s2.7,0.7,4.2,0.7c1.2,0,2.3-0.1,3.3-0.3c1-0.2,1.9-0.4,2.6-0.6c0.7-0.2,1.4-0.5,1.9-0.7C212,104,212.4,103.8,212.6,103.7"/>
		<path class="st1" d="M232.9,86.6c-0.9-0.7-2-1.3-3.2-1.6c-1.2-0.4-2.5-0.6-3.9-0.6c-1.4,0-2.7,0.2-3.9,0.6c-0.2-0.1-0.5-0.2-1-0.3
			c-0.6-0.2-1.2-0.3-1.9-0.3c-1,0-1.8,0.2-2.4,0.6c-0.6,0.4-0.9,1.2-0.9,2.2V93v12.3h6.4V94.5c0-2.8,1.3-4.1,3.7-4.1
			c1.2,0,2.1,0.3,2.7,1c0.6,0.7,0.9,1.7,0.9,3.1v10.8h6.4V93c0-1.4-0.3-2.6-0.8-3.7C234.6,88.2,233.9,87.4,232.9,86.6"/>
		<path class="st1" d="M246.3,92.1c0.2-0.5,0.5-1,0.8-1.4s0.8-0.7,1.3-1c0.5-0.3,1.1-0.4,1.9-0.4c1,0,1.8,0.2,2.3,0.6
			c0.5,0.4,0.8,0.9,0.8,1.4c0,0.3-0.1,0.5-0.2,0.8c-0.1,0.3-0.4,0.5-0.9,0.7c-0.5,0.2-1.2,0.4-2.2,0.5s-2.4,0.2-4.1,0.2
			C246,93.1,246.1,92.6,246.3,92.1 M253.4,105.6c1-0.2,1.9-0.4,2.6-0.6c0.7-0.2,1.4-0.5,1.9-0.7c0.5-0.2,0.8-0.4,1-0.6l-2.2-4.4
			c-0.1,0.1-0.2,0.2-0.5,0.3c-0.3,0.1-0.7,0.3-1.1,0.4c-0.4,0.1-1,0.3-1.6,0.4c-0.6,0.1-1.3,0.2-1.9,0.2c-0.9,0-1.7-0.1-2.3-0.2
			c-0.6-0.2-1.2-0.4-1.6-0.6c-0.4-0.3-0.7-0.6-1-0.9c-0.2-0.3-0.4-0.6-0.4-0.9h1.4c2.4,0,4.3-0.2,5.8-0.4c1.5-0.3,2.7-0.7,3.6-1.3
			c0.9-0.5,1.5-1.2,1.9-2c0.3-0.8,0.5-1.7,0.5-2.6c0-0.9-0.2-1.8-0.6-2.6c-0.4-0.8-1-1.6-1.8-2.3c-0.8-0.7-1.7-1.2-2.9-1.6
			s-2.4-0.6-3.9-0.6c-1.5,0-3,0.3-4.3,0.8s-2.5,1.2-3.5,2.2c-1,0.9-1.8,2.1-2.3,3.4c-0.6,1.3-0.8,2.8-0.8,4.4c0,1.7,0.3,3.2,0.8,4.5
			c0.6,1.3,1.3,2.4,2.3,3.4c1,0.9,2.1,1.6,3.4,2.1c1.3,0.5,2.7,0.7,4.2,0.7C251.3,105.9,252.4,105.8,253.4,105.6"/>
		<path class="st1" d="M281.5,89.3c-0.5-1.1-1.3-2-2.2-2.7c-0.9-0.7-2-1.3-3.2-1.6c-1.2-0.4-2.5-0.6-3.9-0.6c-1.4,0-2.7,0.2-3.9,0.6
			c-0.2-0.1-0.5-0.2-1-0.3c-0.6-0.2-1.2-0.3-1.9-0.3c-1,0-1.8,0.2-2.4,0.6c-0.6,0.4-0.9,1.2-0.9,2.2V93v12.3h6.4V94.5
			c0-2.8,1.3-4.1,3.7-4.1c1.2,0,2.1,0.3,2.7,1c0.6,0.7,1,1.7,1,3.1v10.8h6.4V93C282.3,91.6,282,90.4,281.5,89.3"/>
		<path class="st1" d="M192.4,75.2c-0.2,0-0.5,0.1-1,0.2c-0.5,0.1-1.2,0.1-2,0.1c-0.8,0-1.4-0.1-1.9-0.2s-0.9-0.3-1.2-0.4
			c-0.3-0.2-0.5-0.4-0.6-0.7s-0.2-0.6-0.2-0.9c0-0.8,0.3-1.4,0.9-1.8c0.6-0.4,1.5-0.6,2.7-0.6c1,0,1.8,0,2.3,0.1
			c0.5,0.1,0.9,0.1,1,0.2L192.4,75.2L192.4,75.2z M194.7,77.4c0.4,0,0.7-0.1,0.9-0.1V69c0-1.1-0.2-2-0.5-2.7
			c-0.4-0.8-0.9-1.4-1.5-1.8c-0.6-0.5-1.4-0.8-2.3-1s-1.9-0.3-3-0.3c-0.9,0-1.6,0.1-2.2,0.2c-0.6,0.1-1.1,0.3-1.4,0.5
			c-0.4,0.2-0.6,0.4-0.7,0.7c-0.1,0.3-0.2,0.5-0.2,0.8c0,0.4,0.1,0.7,0.3,0.9c0.2,0.3,0.4,0.4,0.5,0.5c0.2-0.2,0.6-0.4,1.3-0.6
			c0.6-0.2,1.5-0.4,2.5-0.4c0.6,0,1.2,0.1,1.7,0.1c0.5,0.1,1,0.3,1.3,0.5c0.4,0.2,0.7,0.6,0.9,1c0.2,0.4,0.3,1,0.3,1.6
			c-0.3,0-0.8-0.1-1.4-0.1c-0.6-0.1-1.3-0.1-2-0.1c-1.2,0-2.3,0.1-3.1,0.3c-0.9,0.2-1.5,0.5-2.1,0.9c-0.5,0.4-0.9,0.9-1.1,1.4
			c-0.2,0.6-0.4,1.2-0.4,2c0,0.6,0.1,1.1,0.3,1.7c0.2,0.5,0.6,1,1.1,1.4c0.5,0.4,1.3,0.8,2.2,1s2.1,0.4,3.5,0.4c0.7,0,1.4,0,2.1-0.1
			c0.7,0,1.3-0.1,1.8-0.1C193.8,77.5,194.3,77.4,194.7,77.4"/>
		<path class="st1" d="M201.8,68.6c0.2-0.5,0.5-1,0.9-1.4c0.4-0.4,0.8-0.7,1.3-0.9c0.5-0.2,1.1-0.3,1.7-0.3c0.6,0,1.2,0.1,1.7,0.3
			c0.5,0.2,1,0.5,1.3,1c0.4,0.4,0.7,0.9,0.9,1.4c0.2,0.6,0.3,1.1,0.3,1.8c0,0.7-0.1,1.3-0.3,1.8c-0.2,0.5-0.5,1-0.9,1.4
			s-0.8,0.7-1.3,0.9c-0.5,0.2-1.1,0.3-1.7,0.3c-0.6,0-1.2-0.1-1.7-0.3c-0.5-0.2-1-0.5-1.3-0.9c-0.4-0.4-0.7-0.9-0.9-1.4
			s-0.3-1.1-0.3-1.8C201.5,69.7,201.6,69.1,201.8,68.6 M200.3,75.6c0.7,0.7,1.4,1.2,2.4,1.5c0.9,0.4,1.9,0.6,3,0.6
			c1.1,0,2.1-0.2,3-0.5c0.5-0.2,0.9-0.4,1.4-0.7c0,0.4,0.2,0.7,0.4,0.8c0.3,0.2,0.7,0.4,1.2,0.4c0.3,0,0.6,0,0.9-0.1
			c0.3-0.1,0.5-0.1,0.6-0.2v-7.7v-3.4v-9.1c-0.1,0-0.3-0.1-0.6-0.2c-0.3-0.1-0.6-0.1-0.9-0.1c-0.5,0-0.9,0.1-1.2,0.4
			c-0.3,0.2-0.4,0.6-0.4,1.1v6.8c-0.5-0.6-1.1-1.1-1.9-1.5c-0.8-0.4-1.8-0.6-2.8-0.6c-1,0-1.9,0.2-2.8,0.5s-1.6,0.9-2.2,1.5
			c-0.6,0.7-1.1,1.4-1.5,2.3c-0.4,0.9-0.5,1.9-0.5,2.9c0,1.1,0.2,2,0.6,2.9C199.2,74.2,199.7,75,200.3,75.6"/>
		<path class="st1" d="M158.4,70.4c0.4,0.3,1,0.6,1.6,0.8c0.6,0.2,1.3,0.3,2,0.4l2.2,0.3c1,0.1,1.7,0.3,2.1,0.6
			c0.4,0.3,0.6,0.7,0.6,1.2c0,0.6-0.3,1-0.9,1.3s-1.4,0.4-2.4,0.4c-0.7,0-1.4-0.1-2.1-0.2c-0.6-0.1-1.2-0.2-1.7-0.4
			c-0.5-0.2-0.9-0.3-1.2-0.5c-0.3-0.2-0.6-0.3-0.7-0.4c0,0-0.2,0.3-0.4,0.7c-0.3,0.7-0.6,1.8,0.5,2.1h0l0,0c0.3,0.1,0.6,0.2,0.9,0.3
			c0.6,0.2,1.3,0.4,2.1,0.5s1.7,0.2,2.7,0.2c2.1,0,3.6-0.4,4.8-1.3s1.6-1.9,1.6-3.3c0-1.2-0.4-2.2-1.3-2.8c-0.9-0.6-2-1.1-3.6-1.3
			l-2.8-0.4c-0.8-0.1-1.3-0.3-1.7-0.5c-0.4-0.3-0.6-0.6-0.6-1.1c0-1.1,1.1-1.7,3.2-1.7c0.8,0,1.5,0.1,2.1,0.2
			c0.6,0.1,1.1,0.3,1.5,0.4c0.4,0.2,0.8,0.3,1,0.5c0.3,0.2,0.4,0.3,0.5,0.3c0.1,0,0.1-0.1,0.3-0.2s0.2-0.2,0.3-0.3
			c0.1-0.1,0.2-0.3,0.3-0.4c0.1-0.2,0.1-0.4,0.1-0.6c0-0.7-0.5-1.2-1.6-1.7s-2.6-0.6-4.5-0.6c-1.1,0-2.1,0.1-2.9,0.3s-1.4,0.5-1.9,1
			c-0.5,0.4-0.9,0.9-1.1,1.4c-0.2,0.5-0.3,1.1-0.3,1.7c0,0.7,0.1,1.3,0.4,1.8C157.6,69.7,158,70.1,158.4,70.4"/>
		<path class="st1" d="M176.9,77.7c0.6,0,1.1-0.1,1.6-0.2s0.9-0.2,1.3-0.4c1.6-0.5,0.3-3,0.3-3c-0.2,0.2-0.5,0.3-1,0.5
			c-0.5,0.2-1,0.3-1.5,0.3c-0.3,0-0.6,0-0.9-0.1s-0.6-0.2-0.8-0.4c-0.2-0.2-0.4-0.4-0.5-0.7c-0.1-0.3-0.2-0.7-0.2-1.2v-6.2h5.3
			c0.1-0.1,0.1-0.3,0.2-0.6c0.1-0.3,0.1-0.6,0.1-0.9c0-0.5-0.1-0.8-0.4-1.1c-0.3-0.3-0.7-0.4-1.3-0.4h-4v-6.2
			c-0.1,0-0.3-0.1-0.6-0.2c-0.3-0.1-0.6-0.1-0.9-0.1c-0.5,0-0.9,0.1-1.2,0.3s-0.4,0.6-0.4,1.1v14.8c0,1.4,0.4,2.5,1.3,3.3
			C174.1,77.3,175.3,77.7,176.9,77.7"/>
		<path class="st1" d="M175.1,128c-0.1,0-0.3,0-0.5,0.1c-4.5,1.4-9,2.3-13,2.6c-10.4,1-17.4-0.8-22-5.5c-3.6-3.7-5.4-9-5.3-14.9
			c0.2-6.7,4-13.2,6.2-16.5c0.1-0.2,0.3-0.4,0.4-0.6c1.3-1.7,3.1-4.4,3.1-6.7c0-1.8-1.6-3.2-3.5-3.2c-4,0-10.6,2.9-17.8,7.7
			l-4.5,3.2c1.8-4.3,2.2-7.8,0.9-9.9c-0.8-1.3-2.2-2-4-2c-3.6,0-9.3,2.9-26.3,13.4c0.8-1.3,1.5-2.6,2.1-3.9
			c2.8-5.4,4.5-10.1,4.5-12.9c0-2.9-2.2-4.6-5.8-4.6c-7.5,0-24.7,7.4-37.4,12.8c-1.1,0.5-2.1,0.9-3.1,1.3l-0.1,0.1
			c-0.9,0.4-1.4,1.3-1.4,2.2c0,0.3,0.1,0.6,0.2,1c0.4,0.9,1.3,1.5,2.3,1.5c0.3,0,0.7-0.1,1-0.2c1.1-0.5,2.3-1,3.4-1.5
			c12.2-5.2,28.8-12.3,35.2-12.3c0.4,0,0.7,0,0.9,0.1c-0.2,1.9-1.8,6-4.1,10.3c-2.1,4.2-5,8.9-6.7,11.1l-0.2,0.2
			c-0.3,0.5-0.5,1-0.5,1.5c0,0.5,0.2,1,0.4,1.5c0.1,0.1,0.2,0.3,0.3,0.4c0.5,0.6,1.3,0.9,2.1,0.9c0.4,0,0.9-0.1,1.3-0.3l0.3-0.2
			c22.1-13.8,28.9-17.5,31.5-17.5c0.6,0.7-2.2,8-6.9,13.6c0,0,0,0,0,0.1c-0.4,0.5-0.6,1.1-0.6,1.7c0,1.5,1.2,2.7,2.6,2.7
			c0.5,0,1-0.2,1.5-0.5l13.7-9.7c5.3-3.6,10.2-6,13.4-6.7c-0.3,0.5-0.9,1.5-1.9,2.7c0,0,0,0,0,0c-9,11.7-9.2,27.9-0.4,37
			c3,3.1,8.7,6.9,18.6,6.9c2.6,0,4.8-0.1,7-0.4c4.7-0.6,9-1.5,13.3-2.8c0,0,0.1,0,0.1,0l0.1,0c0,0,0.1,0,0.1,0
			c0.7-0.3,1.1-1,1.1-1.7C176.9,128.8,176.1,128,175.1,128"/>
	</g>
</g>
</svg>
